{
  "accessors": [
    {
      "bufferView": 2,
      "componentType": 5126,
      "count": 1667,
      "max": [
        3.000222682952881,
        1.0149263143539429,
        9.930246353149414
      ],
      "min": [
        -2.953040361404419,
        -2.2858920097351074,
        0.8631488680839539
      ],
      "type": "VEC3"
    },
    {
      "bufferView": 2,
      "byteOffset": 20004,
      "componentType": 5126,
      "count": 1667,
      "max": [
        0.9995230436325073,
        0.9999369382858276,
        0.9936501979827881
      ],
      "min": [
        -0.9995230436325073,
        -0.999980092048645,
        -0.9998033046722412
      ],
      "type": "VEC3"
    },
    {
      "bufferView": 1,
      "componentType": 5126,
      "count": 1667,
      "max": [
        0.9686514139175415,
        0.9984372854232788
      ],
      "min": [
        -1.0345957279205322,
        0.006419755518436432
      ],
      "type": "VEC2"
    },
    {
      "bufferView": 0,
      "componentType": 5125,
      "count": 6972,
      "type": "SCALAR"
    },
    {
      "bufferView": 2,
      "byteOffset": 40008,
      "componentType": 5126,
      "count": 340,
      "max": [
        4.0506744384765625,
        2.751154661178589,
        6.642273902893066
      ],
      "min": [
        -0.10698282718658447,
        0.5176271796226501,
        3.9265596866607666
      ],
      "type": "VEC3"
    },
    {
      "bufferView": 2,
      "byteOffset": 44088,
      "componentType": 5126,
      "count": 340,
      "max": [
        0.9775992631912231,
        0.9957809448242188,
        0.9788478016853333
      ],
      "min": [
        -0.9888752102851868,
        -0.9897410869598389,
        -0.9957520961761475
      ],
      "type": "VEC3"
    },
    {
      "bufferView": 1,
      "byteOffset": 13336,
      "componentType": 5126,
      "count": 340,
      "max": [
        0.4118007719516754,
        0.7206094861030579
      ],
      "min": [
        0.3308531939983368,
        0.47061794996261597
      ],
      "type": "VEC2"
    },
    {
      "bufferView": 0,
      "byteOffset": 27888,
      "componentType": 5125,
      "count": 1440,
      "type": "SCALAR"
    },
    {
      "bufferView": 2,
      "byteOffset": 48168,
      "componentType": 5126,
      "count": 95,
      "max": [
        1.2388908863067627,
        0.8954628705978394,
        7.328415393829346
      ],
      "min": [
        -1.2320218086242676,
        -0.894069492816925,
        3.1665053367614746
      ],
      "type": "VEC3"
    },
    {
      "bufferView": 2,
      "byteOffset": 49308,
      "componentType": 5126,
      "count": 95,
      "max": [
        0.9326287508010864,
        0.9977430701255798,
        0.8976065516471863
      ],
      "min": [
        -0.9372988939285278,
        -0.9999464750289917,
        -0.10330803692340851
      ],
      "type": "VEC3"
    },
    {
      "bufferView": 1,
      "byteOffset": 16056,
      "componentType": 5126,
      "count": 95,
      "max": [
        0.739185631275177,
        0.27228492498397827
      ],
      "min": [
        0.3527739644050598,
        0.015099167823791504
      ],
      "type": "VEC2"
    },
    {
      "bufferView": 0,
      "byteOffset": 33648,
      "componentType": 5125,
      "count": 267,
      "type": "SCALAR"
    },
    {
      "bufferView": 2,
      "byteOffset": 50448,
      "componentType": 5126,
      "count": 2432,
      "max": [
        3.254901647567749,
        3.335296154022217,
        9.033809661865234
      ],
      "min": [
        -3.245535373687744,
        -0.6041148900985718,
        1.0612446069717407
      ],
      "type": "VEC3"
    },
    {
      "bufferView": 2,
      "byteOffset": 79632,
      "componentType": 5126,
      "count": 2432,
      "max": [
        0.9918187856674194,
        0.9999489784240723,
        0.9985149502754211
      ],
      "min": [
        -0.9987921118736267,
        -0.9979437589645386,
        -0.9994139671325684
      ],
      "type": "VEC3"
    },
    {
      "bufferView": 1,
      "byteOffset": 16816,
      "componentType": 5126,
      "count": 2432,
      "max": [
        0.9718235731124878,
        0.9891173839569092
      ],
      "min": [
        0.011817723512649536,
        0.45101651549339294
      ],
      "type": "VEC2"
    },
    {
      "bufferView": 0,
      "byteOffset": 34716,
      "componentType": 5125,
      "count": 10512,
      "type": "SCALAR"
    }
  ],
  "asset": {
    "extras": {
      "author": "Kanna-Nakajima (https://sketchfab.com/Kanna-nakajima)",
      "license": "CC-BY-4.0 (http://creativecommons.org/licenses/by/4.0/)",
      "source": "https://sketchfab.com/3d-models/laplus-darknesss-low-poly-model-766a92e4fa7145ab8ddaad9c8de65933",
      "title": "Laplus Darknesss Low poly model"
    },
    "generator": "Sketchfab-13.79.0",
    "version": "2.0"
  },
  "bufferViews": [
    {
      "buffer": 0,
      "byteLength": 76764,
      "name": "floatBufferViews",
      "target": 34963
    },
    {
      "buffer": 0,
      "byteLength": 36272,
      "byteOffset": 76764,
      "byteStride": 8,
      "name": "floatBufferViews",
      "target": 34962
    },
    {
      "buffer": 0,
      "byteLength": 108816,
      "byteOffset": 113036,
      "byteStride": 12,
      "name": "floatBufferViews",
      "target": 34962
    }
  ],
  "buffers": [
    {
      "byteLength": 221852,
      "uri": "scene.bin"
    }
  ],
  "images": [
    {
      "uri": "textures/Material_baseColor.png"
    },
    {
      "uri": "textures/Material.001_baseColor.png"
    }
  ],
  "materials": [
    {
      "doubleSided": true,
      "name": "Material",
      "pbrMetallicRoughness": {
        "baseColorTexture": {
          "index": 0
        },
        "metallicFactor": 0.0,
        "roughnessFactor": 0.8040408205773457
      }
    },
    {
      "doubleSided": true,
      "name": "Material.001",
      "pbrMetallicRoughness": {
        "baseColorTexture": {
          "index": 1
        },
        "metallicFactor": 0.0,
        "roughnessFactor": 0.8211145618000169
      }
    }
  ],
  "meshes": [
    {
      "name": "Cube_Material_0",
      "primitives": [
        {
          "attributes": {
            "NORMAL": 1,
            "POSITION": 0,
            "TEXCOORD_0": 2
          },
          "indices": 3,
          "material": 0,
          "mode": 4
        }
      ]
    },
    {
      "name": "Cube.001_Material_0",
      "primitives": [
        {
          "attributes": {
            "NORMAL": 5,
            "POSITION": 4,
            "TEXCOORD_0": 6
          },
          "indices": 7,
          "material": 0,
          "mode": 4
        }
      ]
    },
    {
      "name": "Plane_Material_0",
      "primitives": [
        {
          "attributes": {
            "NORMAL": 9,
            "POSITION": 8,
            "TEXCOORD_0": 10
          },
          "indices": 11,
          "material": 0,
          "mode": 4
        }
      ]
    },
    {
      "name": "BezierCurve.001_Material.001_0",
      "primitives": [
        {
          "attributes": {
            "NORMAL": 13,
            "POSITION": 12,
            "TEXCOORD_0": 14
          },
          "indices": 15,
          "material": 1,
          "mode": 4
        }
      ]
    }
  ],
  "nodes": [
    {
      "children": [
        1
      ],
      "matrix": [
        1.0,
        0.0,
        0.0,
        0.0,
        0.0,
        2.220446049250313e-16,
        -1.0,
        0.0,
        0.0,
        1.0,
        2.220446049250313e-16,
        0.0,
        0.0,
        0.0,
        0.0,
        1.0
      ],
      "name": "Sketchfab_model"
    },
    {
      "children": [
        2
      ],
      "matrix": [
        0.009999999776482582,
        0.0,
        0.0,
        0.0,
        0.0,
        0.0,
        0.009999999776482582,
        0.0,
        0.0,
        -0.009999999776482582,
        0.0,
        0.0,
        0.0,
        0.0,
        0.0,
        1.0
      ],
      "name": "e5b6c73c8fc149dc9058ce40f5eea38a.fbx"
    },
    {
      "children": [
        3,
        5,
        7,
        9
      ],
      "name": "RootNode"
    },
    {
      "children": [
        4
      ],
      "matrix": [
        100.0,
        0.0,
        0.0,
        0.0,
        0.0,
        -1.629206793918314e-05,
        -99.99999999999868,
        0.0,
        0.0,
        99.99999999999868,
        -1.629206793918314e-05,
        0.0,
        0.0,
        0.0,
        0.0,
        1.0
      ],
      "name": "Cube"
    },
    {
      "mesh": 0,
      "name": "Cube_Material_0"
    },
    {
      "children": [
        6
      ],
      "matrix": [
        100.0,
        0.0,
        0.0,
        0.0,
        0.0,
        -1.629206793918314e-05,
        -99.99999999999868,
        0.0,
        0.0,
        99.99999999999868,
        -1.629206793918314e-05,
        0.0,
        0.0,
        0.0,
        0.0,
        1.0
      ],
      "name": "Cube.001"
    },
    {
      "mesh": 1,
      "name": "Cube.001_Material_0"
    },
    {
      "children": [
        8
      ],
      "matrix": [
        100.0,
        0.0,
        0.0,
        0.0,
        0.0,
        -1.629206793918314e-05,
        -99.99999999999868,
        0.0,
        0.0,
        99.99999999999868,
        -1.629206793918314e-05,
        0.0,
        0.0,
        0.0,
        0.0,
        1.0
      ],
      "name": "Plane"
    },
    {
      "mesh": 2,
      "name": "Plane_Material_0"
    },
    {
      "children": [
        10
      ],
      "matrix": [
        100.0,
        0.0,
        0.0,
        0.0,
        0.0,
        -1.629206793918314e-05,
        -99.99999999999868,
        0.0,
        0.0,
        99.99999999999868,
        -1.629206793918314e-05,
        0.0,
        0.0,
        0.0,
        0.0,
        1.0
      ],
      "name": "BezierCurve.001"
    },
    {
      "mesh": 3,
      "name": "BezierCurve.001_Material.001_0"
    }
  ],
  "samplers": [
    {
      "magFilter": 9728,
      "minFilter": 9728,
      "wrapS": 10497,
      "wrapT": 10497
    }
  ],
  "scene": 0,
  "scenes": [
    {
      "name": "Sketchfab_Scene",
      "nodes": [
        0
      ]
    }
  ],
  "textures": [
    {
      "sampler": 0,
      "source": 0
    },
    {
      "sampler": 0,
      "source": 1
    }
  ]
}
